<svg width="20" height="20" viewBox="0 0 20 20" fill="none" xmlns="http://www.w3.org/2000/svg">
<path fill-rule="evenodd" clip-rule="evenodd" d="M0.25 10C0.25 4.61522 4.61522 0.25 10 0.25C15.3848 0.25 19.75 4.61522 19.75 10C19.75 15.3848 15.3848 19.75 10 19.75C4.61522 19.75 0.25 15.3848 0.25 10ZM10 6.25C10.4142 6.25 10.75 6.58579 10.75 7V10.75C10.75 11.1642 10.4142 11.5 10 11.5C9.58579 11.5 9.25 11.1642 9.25 10.75V7C9.25 6.58579 9.58579 6.25 10 6.25ZM10 14.5C10.4142 14.5 10.75 14.1642 10.75 13.75C10.75 13.3358 10.4142 13 10 13C9.58579 13 9.25 13.3358 9.25 13.75C9.25 14.1642 9.58579 14.5 10 14.5Z" fill="#DB2777"/>
</svg>
